<?xml version="1.0" encoding="utf-8"?>
<!-- Generator: Adobe Illustrator 22.1.0, SVG Export Plug-In . SVG Version: 6.00 Build 0)  -->
<svg version="1.1" id="Layer_1" xmlns="http://www.w3.org/2000/svg" xmlns:xlink="http://www.w3.org/1999/xlink" x="0px" y="0px"
	 viewBox="0 0 355.3 70.9" style="enable-background:new 0 0 355.3 70.9;" xml:space="preserve">
<style type="text/css">
	.st0{fill:#2E2F30;}
	.st1{fill:#35B0FF;}
	.st2{fill:#FFFFFF;}
	.st3{clip-path:url(#SVGID_3_);fill:#FFFFFF;}
</style>
<path class="st0" d="M131.7,65.7c-3.8,0-7.4,0-11.1,0c-0.3-0.5-0.6-1-0.8-1.5c-3.2-6.3-6.5-12.5-9.6-18.8c-0.5-1.1-1.1-1.5-2.3-1.4
	c-3.1,0.1-6.3,0-9.4,0c-0.5,0-1.1,0-1.7,0.1c0,7.3,0,14.4,0,21.7c-3.2,0-6.3,0-9.4,0c0-18.4,0-36.8,0-55.3c0.5,0,0.9-0.1,1.3-0.1
	c7.7,0,15.3,0,22.9,0c2.4,0,4.8,0.2,7.1,0.9c5.7,1.7,9.4,5.4,10.7,11.2c0.8,3.3,0.8,6.8-0.2,10c-1.3,4.3-3.8,7.5-8,9.4
	c-0.3,0.2-0.7,0.3-1,0.5c-0.3,0.1-0.6,0.2-1.1,0.5C123.2,50.4,127.5,58,131.7,65.7z M96.8,35c5.6,0,11,0,16.4,0
	c0.6,0,1.3-0.2,1.9-0.4c2.5-0.7,4.2-2.4,4.8-4.8c0.3-1.4,0.5-3,0.3-4.4c-0.5-3.1-2.4-5.3-5.6-6c-1-0.2-2-0.3-3-0.3
	c-4.4,0-9,0-13.4,0c-0.5,0-0.9,0.1-1.4,0.1C96.8,24.5,96.8,29.7,96.8,35z"/>
<path class="st0" d="M209.9,29.9c0-7.5,0-15.1,0-22.6c3.1,0,6.2,0,9.3,0c0,19.5,0,38.9,0,58.3c-1.1,0.4-6.2,0.4-8.6,0.1
	c0-1.7,0-3.2,0-5.1c-0.3,0.2-0.5,0.3-0.6,0.4c-2.7,3.6-6.3,5.3-10.6,5.7c-3.7,0.4-7.5,0.1-10.8-1.7c-4.6-2.3-7.5-6.1-9.1-10.8
	c-2.4-7.4-2.1-14.6,2-21.4s10.7-9.2,18-8.3c4,0.5,7.5,2.2,10,5.6C209.7,30,209.8,29.9,209.9,29.9z M187.5,45.4
	c-0.1,3.4,0.8,6.5,3,9.3c4.2,5.3,13,5.2,17-0.2c3.3-4.5,3.5-11.9,0.7-16.7c-3.9-6.7-14.3-6.8-18.4-0.4
	C188.2,39.8,187.5,42.4,187.5,45.4z"/>
<path class="st0" d="M162.1,39.9c0.3-4.3-1.8-7-5.8-7.7c-2.2-0.4-4.2-0.4-6.3,0.2c-2.5,0.7-4.1,2.2-4.7,4.6
	c-0.1,0.3-0.2,0.5-0.3,0.8c-3,0-5.9,0-9.1,0c0.3-1.3,0.5-2.5,0.9-3.5c2-5.6,6.2-8.8,12-9.7c3.7-0.6,7.5-0.6,11.2,0.2
	c6.9,1.5,11.1,6.3,11.3,13.4c0.1,4.1,0.1,8.3,0.1,12.4c0,2.5-0.1,5,0,7.5c0.1,2.5,0.5,4.9,0.7,7.5c-2.7,0-5.5,0-8.6,0
	c-0.2-1.6-0.4-3.1-0.6-4.6c-0.3,0.2-0.4,0.3-0.6,0.4c-2.7,3.2-6.2,4.7-10.2,5.1c-3,0.3-5.8,0.3-8.7-0.6c-5-1.5-8.2-5.3-8.5-10.5
	c-0.3-5.2,2-9,6.6-11.3c3.1-1.6,6.6-2.3,10.1-2.8c3.2-0.5,6.5-0.9,9.7-1.4C161.6,40.1,161.8,40,162.1,39.9z M162.2,47
	c-0.6,0-1.1,0-1.5,0.1c-3.3,0.5-6.7,1-10,1.6c-1.4,0.3-2.7,0.7-3.9,1.3c-2.1,1-3.1,2.9-2.8,4.9c0.2,2.2,1.5,3.6,3.7,4.2
	c3.1,0.8,6.2,0.6,9.2-0.8c1.6-0.7,2.9-1.9,3.7-3.3C162.2,52.5,162.4,49.8,162.2,47z"/>
<path class="st0" d="M283.1,65.8c-3.1,0-5.9,0-8.9,0c-0.2-1.5-0.4-3.1-0.6-4.6c-0.2,0.1-0.4,0.2-0.5,0.3c-2.6,3.2-6.1,4.7-10.1,5.1
	c-3.1,0.3-6,0.3-9.1-0.6c-4.9-1.5-8.1-5.3-8.4-10.4c-0.3-5.3,2-9.1,6.7-11.4c3.1-1.6,6.4-2.2,9.8-2.7c3.3-0.5,6.6-0.9,9.9-1.4
	c0.2,0,0.4-0.1,0.6-0.2c0.7-3.4-1.2-6.5-4.6-7.5c-2.5-0.7-4.9-0.8-7.4,0c-2.5,0.7-4.1,2.2-4.7,4.6c-0.1,0.3-0.2,0.5-0.3,0.8
	c-3,0-5.9,0-9,0c0.1-2.1,0.7-3.8,1.6-5.6c2.4-4.5,6.2-6.9,11.1-7.7c3.7-0.6,7.5-0.6,11.2,0.2c6.9,1.5,11,6.3,11.3,13.3
	c0.2,4.9,0,9.7,0.1,14.7C282,57.1,281.6,61.4,283.1,65.8z M272.7,47c-0.4,0-0.8-0.1-1.3,0c-3.1,0.5-6.1,0.9-9.2,1.4
	c-1.7,0.3-3.3,0.8-4.8,1.5c-2.2,1-3.1,2.9-2.9,5c0.2,2.2,1.5,3.5,3.8,4.1c1.8,0.5,3.5,0.4,5.4,0.3C270.2,58.7,273.8,53.4,272.7,47z"
	/>
<path class="st0" d="M318.2,65.8c0-0.8,0-1.4,0-2c0-7.3,0-14.6,0-21.9c0-1.5-0.2-3.1-0.6-4.5c-0.9-3.1-3.4-5-6.7-5.1
	c-3.2-0.1-6.2,0.7-8.3,3.5c-1.1,1.5-1.6,3.1-1.8,4.9c-0.1,1-0.1,1.9-0.1,2.9c0,6.8,0,13.5,0,20.3c0,0.6,0,1.2,0,1.7
	c-1.2,0.4-6.7,0.5-9.1,0.2c-0.3-1.2-0.4-38.4-0.1-40.4c2.8,0,5.4,0,8.4,0c0,1.5,0,3,0,4.6c0.4-0.3,0.6-0.4,0.7-0.5
	c2.8-3.4,6.4-5,10.7-5.1c1.8-0.1,3.5,0,5.2,0.4c6.1,1.3,9.4,5.4,10.6,11.3c0.3,1.2,0.3,2.5,0.4,3.6c0,8.3,0,16.4,0,24.7
	c0,0.4,0,0.7-0.1,1.3C324.5,65.9,321.5,65.9,318.2,65.8z"/>
<path class="st0" d="M338.4,14.8c3.2,0,6.1,0,9.3,0c0.4,3.4,0,6.9,0.2,10.4c2.5,0,4.8,0,7.4,0c0.1,2.6,0.1,4.9,0,7.5
	c-2.6,0-4.9,0-7.4,0c-0.1,0.6-0.1,1.1-0.1,1.6c0,6.2,0,12.3,0,18.5c0,4,1.7,5.5,5.7,4.9c0.5-0.1,0.9-0.1,1.4-0.2
	c0.4,1.2,0.5,6.2,0.1,8.1c-0.7,0.1-1.5,0.3-2.3,0.3c-2.6,0.3-5.1,0.1-7.6-0.7c-4.1-1.4-6.1-4.4-6.5-8.6c-0.2-1.7-0.2-3.3-0.2-5.1
	c0-5.6,0-11.2,0-16.9c0-0.6,0-1.2,0-2c-2.1,0-4,0-6,0c0-2.6,0-4.9,0-7.5c2,0,3.8,0,5.9,0c0.2-1.9,0.1-3.5,0.1-5.3
	C338.4,18.3,338.4,16.6,338.4,14.8z"/>
<path class="st0" d="M238.2,25.3c0,13.6,0,26.9,0,40.4c-3.1,0-6.1,0-9.2,0c0-13.5,0-26.9,0-40.4C232.1,25.3,235.1,25.3,238.2,25.3z"
	/>
<path class="st0" d="M233.6,6.9c3.3,0,5.8,2.4,5.8,5.8c0,3.3-2.5,5.8-5.8,5.8s-5.8-2.4-5.8-5.6C227.7,9.4,230.1,6.9,233.6,6.9z"/>
<g>
	<path class="st1" d="M35.4,70.9c35.1,0,35.4-15.8,35.4-35.4S70.6,0,35.4,0S0,15.8,0,35.4S0.3,70.9,35.4,70.9z"/>
</g>
<g>
	<g>
		<path id="SVGID_2_" class="st2" d="M25.1,49.8c-4.5-3.2-7.4-8.5-7.4-14.4c0-9.7,8-17.7,17.7-17.7c2.6,0,4.9,0.5,7.1,1.5l-19.8,18
			c-0.4,0.4-0.5,1-0.1,1.5c0.2,0.2,0.5,0.3,0.8,0.3H31L25.1,49.8z M28.3,51.7l19.8-18c0.4-0.4,0.5-1,0.1-1.5
			c-0.2-0.2-0.5-0.3-0.8-0.3h-7.6l5.9-10.7c4.5,3.1,7.4,8.4,7.4,14.3c0,9.7-8,17.7-17.7,17.7C32.9,53.2,30.5,52.7,28.3,51.7z"/>
	</g>
	<g>
		<g>
			<defs>
				<path id="SVGID_1_" d="M25.1,49.8c-4.5-3.2-7.4-8.5-7.4-14.4c0-9.7,8-17.7,17.7-17.7c2.6,0,4.9,0.5,7.1,1.5l-19.8,18
					c-0.4,0.4-0.5,1-0.1,1.5c0.2,0.2,0.5,0.3,0.8,0.3H31L25.1,49.8z M28.3,51.7l19.8-18c0.4-0.4,0.5-1,0.1-1.5
					c-0.2-0.2-0.5-0.3-0.8-0.3h-7.6l5.9-10.7c4.5,3.1,7.4,8.4,7.4,14.3c0,9.7-8,17.7-17.7,17.7C32.9,53.2,30.5,52.7,28.3,51.7z"/>
			</defs>
			<clipPath id="SVGID_3_">
				<use xlink:href="#SVGID_1_"  style="overflow:visible;"/>
			</clipPath>
			<rect x="13.5" y="13.5" class="st3" width="43.9" height="43.9"/>
		</g>
	</g>
</g>
</svg>
